<svg width="122" height="24" viewBox="0 0 122 24" fill="none" xmlns="http://www.w3.org/2000/svg">
<path d="M0.688 23V0.599998H9.424C16.464 0.599998 21.328 5.432 21.328 11.736V11.8C21.328 18.104 16.464 23 9.424 23H0.688ZM5.616 18.552H9.424C13.456 18.552 16.176 15.832 16.176 11.864V11.8C16.176 7.832 13.456 5.048 9.424 5.048H5.616V18.552ZM25.3993 23V0.599998H42.2953V4.984H30.2953V9.528H40.8553V13.912H30.2953V18.616H42.4553V23H25.3993ZM54.4848 23.32C51.0928 23.32 47.6688 22.136 44.9808 19.736L47.8928 16.248C49.9088 17.912 52.0208 18.968 54.5808 18.968C56.5968 18.968 57.8128 18.168 57.8128 16.856V16.792C57.8128 15.544 57.0448 14.904 53.3008 13.944C48.7888 12.792 45.8768 11.544 45.8768 7.096V7.032C45.8768 2.968 49.1408 0.279999 53.7168 0.279999C56.9808 0.279999 59.7648 1.304 62.0368 3.128L59.4768 6.84C57.4928 5.464 55.5408 4.632 53.6528 4.632C51.7648 4.632 50.7728 5.496 50.7728 6.584V6.648C50.7728 8.12 51.7328 8.6 55.6048 9.592C60.1488 10.776 62.7088 12.408 62.7088 16.312V16.376C62.7088 20.824 59.3168 23.32 54.4848 23.32ZM66.8895 23V0.599998H71.8175V23H66.8895ZM87.8795 23.384C80.9035 23.384 76.1035 18.488 76.1035 11.864V11.8C76.1035 5.432 81.0635 0.216 87.8475 0.216C91.8795 0.216 94.3115 1.304 96.6475 3.288L93.5435 7.032C91.8155 5.592 90.2795 4.76 87.6875 4.76C84.1035 4.76 81.2555 7.928 81.2555 11.736V11.8C81.2555 15.896 84.0715 18.904 88.0395 18.904C89.8315 18.904 91.4315 18.456 92.6795 17.56V14.36H87.7195V10.104H97.4475V19.832C95.1435 21.784 91.9755 23.384 87.8795 23.384ZM101.869 23V0.599998H106.413L116.909 14.392V0.599998H121.773V23H117.581L106.733 8.76V23H101.869Z" fill="#272727"/>
</svg>
