<svg width="1340" height="772" viewBox="0 0 1340 772" fill="none" xmlns="http://www.w3.org/2000/svg">
<rect y="1.00537" width="1340" height="770.995" fill="#FFE800"/>
<line x1="666" y1="692" x2="666" y2="81" stroke="#272727" stroke-width="2"/>
<rect x="1307.48" y="17" width="22" height="2.09225" transform="rotate(45 1307.48 17)" fill="#272727"/>
<rect x="1306.52" y="33.0996" width="22" height="2.09225" transform="rotate(-45 1306.52 33.0996)" fill="#272727"/>
<rect x="1235" y="0.449707" width="50" height="46.9437" fill="#FFE800"/>
<path d="M155.304 376.581L160.164 370.758C163.532 373.537 167.056 375.3 171.333 375.3C174.701 375.3 176.734 373.964 176.734 371.769V371.667C176.734 369.586 175.453 368.515 169.198 366.915C161.661 364.99 156.801 362.909 156.801 355.481V355.379C156.801 348.588 162.251 344.102 169.889 344.102C175.332 344.102 179.988 345.81 183.777 348.853L179.501 355.048C176.193 352.751 172.933 351.361 169.781 351.361C166.629 351.361 164.975 352.799 164.975 354.621V354.729C164.975 357.189 166.575 357.989 173.041 359.643C180.625 361.622 184.902 364.353 184.902 370.867V370.969C184.902 378.397 179.236 382.565 171.17 382.565C165.511 382.565 159.791 380.586 155.304 376.581Z" fill="#272727"/>
<path d="M190.777 344.638H199.005V382.031H190.777V344.638Z" fill="#272727"/>
<path d="M204.876 363.439V363.337C204.876 352.703 213.26 344 224.803 344C236.345 344 244.621 352.607 244.621 363.235V363.337C244.621 373.971 236.236 382.674 224.694 382.674C213.152 382.674 204.876 374.067 204.876 363.439ZM236.02 363.439V363.337C236.02 356.925 231.316 351.584 224.694 351.584C218.072 351.584 213.477 356.823 213.477 363.235V363.337C213.477 369.749 218.18 375.09 224.803 375.09C231.425 375.09 236.02 369.851 236.02 363.439Z" fill="#272727"/>
<path d="M250.496 344.638H258.081L275.602 367.662V344.638H283.721V382.031H276.72L258.604 358.261V382.031H250.484V344.638H250.496Z" fill="#272727"/>
<path d="M80 391.204H94.5855C106.338 391.204 114.458 399.269 114.458 409.795V409.897C114.458 420.423 106.338 428.591 94.5855 428.591H80V391.198V391.204ZM94.5855 421.175C101.322 421.175 105.857 416.634 105.857 410.006V409.903C105.857 403.281 101.322 398.626 94.5855 398.626H88.228V421.175H94.5855Z" fill="#272727"/>
<path d="M120.96 391.203H149.163V398.517H129.128V406.102H146.757V413.416H129.128V421.271H149.427V428.584H120.954V391.191L120.96 391.203Z" fill="#272727"/>
<path d="M155.304 423.153L160.17 417.331C163.538 420.11 167.062 421.872 171.339 421.872C174.701 421.872 176.734 420.537 176.734 418.342V418.239C176.734 416.158 175.453 415.088 169.198 413.488C161.667 411.563 156.801 409.482 156.801 402.054V401.952C156.801 395.167 162.251 390.68 169.889 390.68C175.339 390.68 179.988 392.388 183.777 395.432L179.507 401.627C176.193 399.329 172.933 397.94 169.787 397.94C166.641 397.94 164.975 399.377 164.975 401.2V401.308C164.975 403.768 166.581 404.568 173.047 406.222C180.631 408.201 184.908 410.931 184.908 417.445V417.548C184.908 424.976 179.242 429.144 171.176 429.144C165.511 429.144 159.797 427.165 155.31 423.159L155.304 423.153Z" fill="#272727"/>
<path d="M190.777 391.204H199.005V428.597H190.777V391.204Z" fill="#272727"/>
<path d="M206.934 410.005V409.903C206.934 399.269 215.216 390.566 226.541 390.566C233.278 390.566 237.332 392.382 241.229 395.696L236.051 401.946C233.163 399.546 230.601 398.15 226.277 398.15C220.292 398.15 215.535 403.437 215.535 409.801V409.903C215.535 416.742 220.238 421.764 226.86 421.764C229.855 421.764 232.526 421.018 234.607 419.52V414.179H226.325V407.076H242.57V423.316C238.721 426.576 233.428 429.246 226.595 429.246C214.951 429.246 206.94 421.072 206.94 410.011L206.934 410.005Z" fill="#272727"/>
<path d="M250.496 391.204H258.081L275.602 414.228V391.204H283.721V428.597H276.72L258.604 404.827V428.597H250.484V391.204H250.496Z" fill="#272727"/>
<path d="M292.899 420.055H301.554V428.596H292.899V420.055Z" fill="#272727"/>
<path d="M319.438 398.83V398.788C319.438 394.764 322.391 391.204 326.793 391.204C329.265 391.204 330.793 391.913 332.261 393.152L331.19 394.409C330.059 393.423 328.802 392.731 326.727 392.731C323.479 392.731 321.152 395.474 321.152 398.746V398.788C321.152 402.289 323.395 404.887 326.956 404.887C328.634 404.887 330.186 404.237 331.19 403.419V399.774H326.727V398.289H332.784V404.135C331.425 405.35 329.368 406.379 326.896 406.379C322.288 406.379 319.438 403.028 319.438 398.836V398.83Z" fill="#272727"/>
<path d="M336.074 391.456H346.678V392.965H337.728V397.975H345.734V399.485H337.728V404.622H346.78V406.131H336.074V391.462V391.456Z" fill="#272727"/>
<path d="M349.281 391.456H350.959L356.3 399.461L361.641 391.456H363.319V406.125H361.665V394.246L356.324 402.101H356.24L350.899 394.264V406.125H349.287V391.456H349.281Z" fill="#272727"/>
<path d="M367.007 391.456H377.611V392.965H368.661V397.975H376.666V399.485H368.661V404.622H377.713V406.131H367.007V391.462V391.456Z" fill="#272727"/>
<path d="M380.324 391.456H381.978V406.125H380.324V391.456Z" fill="#272727"/>
<path d="M385.69 391.456H387.241L396.48 403.208V391.456H398.092V406.125H396.769L387.296 394.096V406.125H385.684V391.456H385.69Z" fill="#272727"/>
<path d="M400.677 403.99L401.705 402.775C403.233 404.158 404.701 404.85 406.734 404.85C408.767 404.85 410 403.804 410 402.354V402.312C410 400.953 409.266 400.177 406.186 399.527C402.812 398.793 401.26 397.705 401.26 395.293V395.251C401.26 392.947 403.293 391.251 406.078 391.251C408.213 391.251 409.747 391.858 411.233 393.055L410.27 394.33C408.905 393.218 407.546 392.737 406.036 392.737C404.129 392.737 402.914 393.783 402.914 395.106V395.148C402.914 396.532 403.672 397.308 406.896 397.999C410.162 398.709 411.672 399.906 411.672 402.15V402.192C411.672 404.706 409.579 406.342 406.661 406.342C404.334 406.342 402.427 405.566 400.671 403.996L400.677 403.99Z" fill="#272727"/>
<path d="M419.533 391.354H421.085L427.767 406.125H425.987L424.266 402.252H416.285L414.547 406.125H412.851L419.533 391.354ZM423.623 400.76L420.291 393.278L416.941 400.76H423.623Z" fill="#272727"/>
<path d="M429.938 391.456H431.616L436.957 399.461L442.298 391.456H443.976V406.125H442.322V394.246L436.981 402.101H436.896L431.555 394.264V406.125H429.944V391.456H429.938Z" fill="#272727"/>
<path d="M454.609 391.456H459.704C464.317 391.456 467.499 394.619 467.499 398.745V398.788C467.499 402.914 464.317 406.119 459.704 406.119H454.609V391.45V391.456ZM459.704 404.592C463.415 404.592 465.779 402.078 465.779 398.83V398.788C465.779 395.54 463.409 392.983 459.704 392.983H456.269V404.592H459.704Z" fill="#272727"/>
<path d="M470.394 391.456H480.997V392.965H472.048V397.975H480.053V399.485H472.048V404.622H481.1V406.131H470.394V391.462V391.456Z" fill="#272727"/>
<path d="M483.595 391.456H485.147L494.385 403.208V391.456H495.997V406.125H494.674L485.201 394.096V406.125H483.589V391.456H483.595Z" fill="#272727"/>
<path d="M320.087 413.681H330.625V415.208H321.741V420.447H329.68V421.957H321.741V428.35H320.087V413.681Z" fill="#272727"/>
<path d="M332.121 421.054V421.012C332.121 416.97 335.158 413.427 339.621 413.427C344.084 413.427 347.08 416.928 347.08 420.97V421.012C347.08 425.054 344.042 428.596 339.579 428.596C335.116 428.596 332.121 425.096 332.121 421.054ZM345.365 421.054V421.012C345.365 417.68 342.935 414.955 339.579 414.955C336.223 414.955 333.835 417.638 333.835 420.97V421.012C333.835 424.344 336.265 427.068 339.621 427.068C342.978 427.068 345.365 424.386 345.365 421.054Z" fill="#272727"/>
<path d="M350.028 413.681H356.338C358.142 413.681 359.586 414.228 360.506 415.148C361.216 415.858 361.637 416.886 361.637 418.041V418.083C361.637 420.513 359.958 421.939 357.655 422.36L362.16 428.35H360.127L355.875 422.649H351.682V428.35H350.028V413.681ZM356.187 421.163C358.389 421.163 359.958 420.032 359.958 418.144V418.101C359.958 416.297 358.575 415.208 356.205 415.208H351.676V421.163H356.181H356.187Z" fill="#272727"/>
<path d="M368.084 415.208H363.158V413.681H374.682V415.208H369.756V428.344H368.078V415.208H368.084Z" fill="#272727"/>
<path d="M375.86 426.208L376.889 424.993C378.417 426.377 379.884 427.068 381.917 427.068C383.95 427.068 385.183 426.022 385.183 424.572V424.53C385.183 423.171 384.449 422.395 381.37 421.745C377.996 421.012 376.444 419.923 376.444 417.511V417.469C376.444 415.165 378.477 413.469 381.262 413.469C383.397 413.469 384.931 414.077 386.416 415.274L385.454 416.549C384.089 415.436 382.729 414.955 381.22 414.955C379.313 414.955 378.098 416.001 378.098 417.325V417.367C378.098 418.75 378.856 419.526 382.08 420.218C385.346 420.927 386.855 422.124 386.855 424.368V424.41C386.855 426.924 384.762 428.56 381.845 428.56C379.517 428.56 377.611 427.784 375.854 426.214L375.86 426.208Z" fill="#272727"/>
<path d="M388.768 421.054V421.012C388.768 416.862 391.871 413.427 396.184 413.427C398.842 413.427 400.436 414.372 401.904 415.755L400.773 416.97C399.534 415.797 398.156 414.961 396.16 414.961C392.912 414.961 390.482 417.601 390.482 420.976V421.018C390.482 424.41 392.936 427.074 396.16 427.074C398.175 427.074 399.492 426.299 400.899 424.957L401.988 426.028C400.46 427.58 398.782 428.608 396.124 428.608C391.889 428.608 388.768 425.276 388.768 421.066V421.054Z" fill="#272727"/>
<path d="M404.269 413.681H405.923V420.201H414.391V413.681H416.045V428.35H414.391V421.752H405.923V428.35H404.269V413.681Z" fill="#272727"/>
<path d="M419.726 413.681H426.035C427.839 413.681 429.283 414.228 430.203 415.148C430.913 415.858 431.334 416.886 431.334 418.041V418.083C431.334 420.513 429.656 421.939 427.352 422.36L431.857 428.35H429.824L425.572 422.649H421.38V428.35H419.726V413.681ZM425.885 421.163C428.086 421.163 429.656 420.032 429.656 418.144V418.101C429.656 416.297 428.272 415.208 425.903 415.208H421.374V421.163H425.879H425.885Z" fill="#272727"/>
<path d="M434.37 413.681H436.024V428.35H434.37V413.681Z" fill="#272727"/>
<path d="M443.249 415.208H438.323V413.681H449.847V415.208H444.921V428.344H443.243V415.208H443.249Z" fill="#272727"/>
<path d="M456.528 415.208H451.602V413.681H463.126V415.208H458.2V428.344H456.522V415.208H456.528Z" fill="#272727"/>
<path d="M472.065 421.054V421.012C472.065 416.988 475.019 413.427 479.421 413.427C481.893 413.427 483.427 414.137 484.889 415.376L483.818 416.633C482.687 415.647 481.43 414.955 479.355 414.955C476.107 414.955 473.78 417.698 473.78 420.97V421.012C473.78 424.512 476.023 427.111 479.584 427.111C481.262 427.111 482.814 426.461 483.818 425.643V421.998H479.355V420.513H485.412V426.359C484.053 427.574 481.996 428.602 479.524 428.602C474.91 428.602 472.065 425.252 472.065 421.06V421.054Z" fill="#272727"/>
<path d="M488.701 413.681H499.305V415.19H490.355V420.201H498.361V421.71H490.355V426.847H499.407V428.356H488.701V413.687V413.681Z" fill="#272727"/>
<path d="M501.188 426.208L502.216 424.993C503.744 426.377 505.211 427.068 507.244 427.068C509.277 427.068 510.51 426.022 510.51 424.572V424.53C510.51 423.171 509.777 422.395 506.697 421.745C503.323 421.012 501.771 419.923 501.771 417.511V417.469C501.771 415.165 503.804 413.469 506.589 413.469C508.724 413.469 510.258 414.077 511.743 415.274L510.781 416.549C509.416 415.436 508.056 414.955 506.547 414.955C504.64 414.955 503.425 416.001 503.425 417.325V417.367C503.425 418.75 504.183 419.526 507.407 420.218C510.673 420.927 512.182 422.124 512.182 424.368V424.41C512.182 426.924 510.089 428.56 507.172 428.56C504.845 428.56 502.938 427.784 501.182 426.214L501.188 426.208Z" fill="#272727"/>
<path d="M518.763 415.208H513.837V413.681H525.361V415.208H520.435V428.344H518.757V415.208H518.763Z" fill="#272727"/>
<path d="M531.13 413.571H532.681L539.364 428.343H537.583L535.863 424.47H527.882L526.143 428.343H524.447L531.13 413.571ZM535.213 422.978L531.881 415.496L528.531 422.978H535.213Z" fill="#272727"/>
<path d="M541.533 413.68H543.187V426.816H551.445V428.344H541.533V413.674V413.68Z" fill="#272727"/>
<path d="M555.534 415.208H550.608V413.681H562.132V415.208H557.206V428.344H555.528V415.208H555.534Z" fill="#272727"/>
<path d="M564.401 413.681H575.005V415.19H566.055V420.201H574.061V421.71H566.055V426.847H575.107V428.356H564.401V413.687V413.681Z" fill="#272727"/>
<path d="M577.598 413.681H579.15L588.388 425.433V413.681H590V428.35H588.677L579.204 416.321V428.35H577.592V413.681H577.598Z" fill="#272727"/>
<path d="M747.688 247V224.6H756.84C762.184 224.6 765.416 227.768 765.416 232.344V232.408C765.416 237.592 761.384 240.28 756.36 240.28H752.616V247H747.688ZM752.616 235.896H756.52C758.984 235.896 760.424 234.424 760.424 232.504V232.44C760.424 230.232 758.888 229.048 756.424 229.048H752.616V235.896ZM768.743 247V224.6H778.983C781.831 224.6 784.039 225.4 785.511 226.872C786.759 228.12 787.431 229.88 787.431 231.992V232.056C787.431 235.672 785.479 237.944 782.631 239L788.103 247H782.343L777.543 239.832H773.671V247H768.743ZM773.671 235.48H778.663C781.063 235.48 782.439 234.2 782.439 232.312V232.248C782.439 230.136 780.967 229.048 778.567 229.048H773.671V235.48ZM802.428 247.384C795.516 247.384 790.556 242.232 790.556 235.864V235.8C790.556 229.432 795.58 224.216 802.492 224.216C809.404 224.216 814.364 229.368 814.364 235.736V235.8C814.364 242.168 809.34 247.384 802.428 247.384ZM802.492 242.84C806.46 242.84 809.212 239.704 809.212 235.864V235.8C809.212 231.96 806.396 228.76 802.428 228.76C798.46 228.76 795.708 231.896 795.708 235.736V235.8C795.708 239.64 798.524 242.84 802.492 242.84ZM822.535 247.32C819.047 247.32 816.743 245.784 815.207 243.96L818.311 240.504C819.591 241.912 820.839 242.744 822.407 242.744C824.263 242.744 825.415 241.624 825.415 239.032V224.6H830.471V239.256C830.471 241.912 829.703 243.896 828.359 245.24C826.983 246.616 824.967 247.32 822.535 247.32ZM835.189 247V224.6H852.085V228.984H840.085V233.528H850.645V237.912H840.085V242.616H852.245V247H835.189ZM856.307 247V224.6H861.235V234.392L870.323 224.6H876.275L867.155 234.104L876.691 247H870.771L863.827 237.464L861.235 240.152V247H856.307ZM884.265 247V229.144H877.449V224.6H896.009V229.144H889.193V247H884.265ZM899.479 247V224.6H916.375V228.984H904.375V233.528H914.935V237.912H904.375V242.616H916.535V247H899.479Z" fill="#272727"/>
<path d="M747.688 329V306.6H756.424C763.464 306.6 768.328 311.432 768.328 317.736V317.8C768.328 324.104 763.464 329 756.424 329H747.688ZM752.616 324.552H756.424C760.456 324.552 763.176 321.832 763.176 317.864V317.8C763.176 313.832 760.456 311.048 756.424 311.048H752.616V324.552ZM772.399 329V306.6H789.295V310.984H777.295V315.528H787.855V319.912H777.295V324.616H789.455V329H772.399ZM801.485 329.32C798.093 329.32 794.669 328.136 791.981 325.736L794.893 322.248C796.909 323.912 799.021 324.968 801.581 324.968C803.597 324.968 804.813 324.168 804.813 322.856V322.792C804.813 321.544 804.045 320.904 800.301 319.944C795.789 318.792 792.877 317.544 792.877 313.096V313.032C792.877 308.968 796.141 306.28 800.717 306.28C803.981 306.28 806.765 307.304 809.037 309.128L806.477 312.84C804.493 311.464 802.541 310.632 800.653 310.632C798.765 310.632 797.773 311.496 797.773 312.584V312.648C797.773 314.12 798.733 314.6 802.605 315.592C807.149 316.776 809.709 318.408 809.709 322.312V322.376C809.709 326.824 806.317 329.32 801.485 329.32ZM813.89 329V306.6H818.818V329H813.89ZM834.88 329.384C827.904 329.384 823.104 324.488 823.104 317.864V317.8C823.104 311.432 828.064 306.216 834.848 306.216C838.88 306.216 841.312 307.304 843.648 309.288L840.544 313.032C838.816 311.592 837.28 310.76 834.688 310.76C831.104 310.76 828.256 313.928 828.256 317.736V317.8C828.256 321.896 831.072 324.904 835.04 324.904C836.832 324.904 838.432 324.456 839.68 323.56V320.36H834.72V316.104H844.448V325.832C842.144 327.784 838.976 329.384 834.88 329.384ZM848.869 329V306.6H853.413L863.909 320.392V306.6H868.773V329H864.581L853.733 314.76V329H848.869Z" fill="#272727"/>
<path d="M747.688 411V388.6H756.84C762.184 388.6 765.416 391.768 765.416 396.344V396.408C765.416 401.592 761.384 404.28 756.36 404.28H752.616V411H747.688ZM752.616 399.896H756.52C758.984 399.896 760.424 398.424 760.424 396.504V396.44C760.424 394.232 758.888 393.048 756.424 393.048H752.616V399.896ZM768.743 411V388.6H778.983C781.831 388.6 784.039 389.4 785.511 390.872C786.759 392.12 787.431 393.88 787.431 395.992V396.056C787.431 399.672 785.479 401.944 782.631 403L788.103 411H782.343L777.543 403.832H773.671V411H768.743ZM773.671 399.48H778.663C781.063 399.48 782.439 398.2 782.439 396.312V396.248C782.439 394.136 780.967 393.048 778.567 393.048H773.671V399.48ZM802.428 411.384C795.516 411.384 790.556 406.232 790.556 399.864V399.8C790.556 393.432 795.58 388.216 802.492 388.216C809.404 388.216 814.364 393.368 814.364 399.736V399.8C814.364 406.168 809.34 411.384 802.428 411.384ZM802.492 406.84C806.46 406.84 809.212 403.704 809.212 399.864V399.8C809.212 395.96 806.396 392.76 802.428 392.76C798.46 392.76 795.708 395.896 795.708 399.736V399.8C795.708 403.64 798.524 406.84 802.492 406.84ZM816.619 411V407.256L828.939 392.92H817.003V388.6H835.275V392.344L822.955 406.68H835.275V411H816.619ZM839.627 411V388.6H856.523V392.984H844.523V397.528H855.083V401.912H844.523V406.616H856.683V411H839.627ZM868.712 411.32C865.32 411.32 861.896 410.136 859.208 407.736L862.12 404.248C864.136 405.912 866.248 406.968 868.808 406.968C870.824 406.968 872.04 406.168 872.04 404.856V404.792C872.04 403.544 871.272 402.904 867.528 401.944C863.016 400.792 860.104 399.544 860.104 395.096V395.032C860.104 390.968 863.368 388.28 867.944 388.28C871.208 388.28 873.992 389.304 876.264 391.128L873.704 394.84C871.72 393.464 869.768 392.632 867.88 392.632C865.992 392.632 865 393.496 865 394.584V394.648C865 396.12 865.96 396.6 869.832 397.592C874.376 398.776 876.936 400.408 876.936 404.312V404.376C876.936 408.824 873.544 411.32 868.712 411.32ZM888.549 411.32C885.157 411.32 881.733 410.136 879.045 407.736L881.957 404.248C883.973 405.912 886.085 406.968 888.645 406.968C890.661 406.968 891.877 406.168 891.877 404.856V404.792C891.877 403.544 891.109 402.904 887.365 401.944C882.853 400.792 879.941 399.544 879.941 395.096V395.032C879.941 390.968 883.205 388.28 887.781 388.28C891.045 388.28 893.829 389.304 896.101 391.128L893.541 394.84C891.557 393.464 889.605 392.632 887.717 392.632C885.829 392.632 884.837 393.496 884.837 394.584V394.648C884.837 396.12 885.797 396.6 889.669 397.592C894.213 398.776 896.773 400.408 896.773 404.312V404.376C896.773 408.824 893.381 411.32 888.549 411.32ZM898.34 411L907.94 388.44H912.484L922.084 411H916.932L914.884 405.976H905.412L903.364 411H898.34ZM907.172 401.624H913.124L910.148 394.36L907.172 401.624ZM933.753 411.352C927.737 411.352 924.057 407.992 924.057 401.4V388.6H928.985V401.272C928.985 404.92 930.809 406.808 933.817 406.808C936.825 406.808 938.649 404.984 938.649 401.432V388.6H943.577V401.24C943.577 408.024 939.769 411.352 933.753 411.352ZM953.493 411V393.144H946.677V388.6H965.237V393.144H958.421V411H953.493ZM978.618 411.384C971.706 411.384 966.746 406.232 966.746 399.864V399.8C966.746 393.432 971.77 388.216 978.682 388.216C985.594 388.216 990.554 393.368 990.554 399.736V399.8C990.554 406.168 985.53 411.384 978.618 411.384ZM978.682 406.84C982.65 406.84 985.402 403.704 985.402 399.864V399.8C985.402 395.96 982.586 392.76 978.618 392.76C974.65 392.76 971.898 395.896 971.898 399.736V399.8C971.898 403.64 974.714 406.84 978.682 406.84ZM994.605 411V388.6H999.917L1005.81 398.072L1011.69 388.6H1017.01V411H1012.11V396.376L1005.81 405.944H1005.68L999.437 396.472V411H994.605ZM1020.15 411L1029.75 388.44H1034.29L1043.89 411H1038.74L1036.69 405.976H1027.22L1025.17 411H1020.15ZM1028.98 401.624H1034.93L1031.95 394.36L1028.98 401.624ZM1049.37 411V393.144H1042.55V388.6H1061.11V393.144H1054.3V411H1049.37ZM1064.81 411V388.6H1069.73V411H1064.81ZM1082.98 411.32C1079.59 411.32 1076.17 410.136 1073.48 407.736L1076.39 404.248C1078.41 405.912 1080.52 406.968 1083.08 406.968C1085.09 406.968 1086.31 406.168 1086.31 404.856V404.792C1086.31 403.544 1085.54 402.904 1081.8 401.944C1077.29 400.792 1074.37 399.544 1074.37 395.096V395.032C1074.37 390.968 1077.64 388.28 1082.21 388.28C1085.48 388.28 1088.26 389.304 1090.53 391.128L1087.97 394.84C1085.99 393.464 1084.04 392.632 1082.15 392.632C1080.26 392.632 1079.27 393.496 1079.27 394.584V394.648C1079.27 396.12 1080.23 396.6 1084.1 397.592C1088.65 398.776 1091.21 400.408 1091.21 404.312V404.376C1091.21 408.824 1087.81 411.32 1082.98 411.32ZM1095.39 411V388.6H1100.31V411H1095.39ZM1113.56 411.32C1110.17 411.32 1106.74 410.136 1104.06 407.736L1106.97 404.248C1108.98 405.912 1111.1 406.968 1113.66 406.968C1115.67 406.968 1116.89 406.168 1116.89 404.856V404.792C1116.89 403.544 1116.12 402.904 1112.38 401.944C1107.86 400.792 1104.95 399.544 1104.95 395.096V395.032C1104.95 390.968 1108.22 388.28 1112.79 388.28C1116.06 388.28 1118.84 389.304 1121.11 391.128L1118.55 394.84C1116.57 393.464 1114.62 392.632 1112.73 392.632C1110.84 392.632 1109.85 393.496 1109.85 394.584V394.648C1109.85 396.12 1110.81 396.6 1114.68 397.592C1119.22 398.776 1121.78 400.408 1121.78 404.312V404.376C1121.78 408.824 1118.39 411.32 1113.56 411.32ZM1125.74 411V388.6H1142.64V392.984H1130.64V397.528H1141.2V401.912H1130.64V406.616H1142.8V411H1125.74ZM1146.86 411V388.6H1157.1C1159.95 388.6 1162.15 389.4 1163.63 390.872C1164.87 392.12 1165.55 393.88 1165.55 395.992V396.056C1165.55 399.672 1163.59 401.944 1160.75 403L1166.22 411H1160.46L1155.66 403.832H1151.79V411H1146.86ZM1151.79 399.48H1156.78C1159.18 399.48 1160.55 398.2 1160.55 396.312V396.248C1160.55 394.136 1159.08 393.048 1156.68 393.048H1151.79V399.48ZM1179.01 411.352C1172.99 411.352 1169.31 407.992 1169.31 401.4V388.6H1174.24V401.272C1174.24 404.92 1176.06 406.808 1179.07 406.808C1182.08 406.808 1183.9 404.984 1183.9 401.432V388.6H1188.83V401.24C1188.83 408.024 1185.02 411.352 1179.01 411.352ZM1193.53 411V388.6H1198.07L1208.57 402.392V388.6H1213.43V411H1209.24L1198.39 396.76V411H1193.53ZM1229.28 411.384C1222.3 411.384 1217.5 406.488 1217.5 399.864V399.8C1217.5 393.432 1222.46 388.216 1229.24 388.216C1233.28 388.216 1235.71 389.304 1238.04 391.288L1234.94 395.032C1233.21 393.592 1231.68 392.76 1229.08 392.76C1225.5 392.76 1222.65 395.928 1222.65 399.736V399.8C1222.65 403.896 1225.47 406.904 1229.44 406.904C1231.23 406.904 1232.83 406.456 1234.08 405.56V402.36H1229.12V398.104H1238.84V407.832C1236.54 409.784 1233.37 411.384 1229.28 411.384Z" fill="#272727"/>
<path d="M755.656 493.32C752.264 493.32 748.84 492.136 746.152 489.736L749.064 486.248C751.08 487.912 753.192 488.968 755.752 488.968C757.768 488.968 758.984 488.168 758.984 486.856V486.792C758.984 485.544 758.216 484.904 754.472 483.944C749.96 482.792 747.048 481.544 747.048 477.096V477.032C747.048 472.968 750.312 470.28 754.888 470.28C758.152 470.28 760.936 471.304 763.208 473.128L760.648 476.84C758.664 475.464 756.712 474.632 754.824 474.632C752.936 474.632 751.944 475.496 751.944 476.584V476.648C751.944 478.12 752.904 478.6 756.776 479.592C761.32 480.776 763.88 482.408 763.88 486.312V486.376C763.88 490.824 760.488 493.32 755.656 493.32ZM777.181 493.352C771.165 493.352 767.485 489.992 767.485 483.4V470.6H772.413V483.272C772.413 486.92 774.237 488.808 777.245 488.808C780.253 488.808 782.077 486.984 782.077 483.432V470.6H787.005V483.24C787.005 490.024 783.197 493.352 777.181 493.352ZM802.2 493.384C795.608 493.384 790.712 488.296 790.712 481.864V481.8C790.712 475.432 795.512 470.216 802.392 470.216C806.616 470.216 809.144 471.624 811.224 473.672L808.088 477.288C806.36 475.72 804.6 474.76 802.36 474.76C798.584 474.76 795.864 477.896 795.864 481.736V481.8C795.864 485.64 798.52 488.84 802.36 488.84C804.92 488.84 806.488 487.816 808.248 486.216L811.384 489.384C809.08 491.848 806.52 493.384 802.2 493.384ZM815.009 493V470.6H819.937V479.464H829.025V470.6H833.953V493H829.025V484.008H819.937V493H815.009ZM839.002 493V470.6H844.314L850.202 480.072L856.09 470.6H861.402V493H856.506V478.376L850.202 487.944H850.074L843.834 478.472V493H839.002ZM864.543 493L874.143 470.44H878.687L888.287 493H883.135L881.087 487.976H871.615L869.567 493H864.543ZM873.375 483.624H879.327L876.351 476.36L873.375 483.624ZM899.08 493.32C895.688 493.32 892.264 492.136 889.576 489.736L892.488 486.248C894.504 487.912 896.616 488.968 899.176 488.968C901.192 488.968 902.408 488.168 902.408 486.856V486.792C902.408 485.544 901.64 484.904 897.896 483.944C893.384 482.792 890.472 481.544 890.472 477.096V477.032C890.472 472.968 893.736 470.28 898.312 470.28C901.576 470.28 904.36 471.304 906.632 473.128L904.072 476.84C902.088 475.464 900.136 474.632 898.248 474.632C896.36 474.632 895.368 475.496 895.368 476.584V476.648C895.368 478.12 896.328 478.6 900.2 479.592C904.744 480.776 907.304 482.408 907.304 486.312V486.376C907.304 490.824 903.912 493.32 899.08 493.32ZM921.756 493.384C915.164 493.384 910.268 488.296 910.268 481.864V481.8C910.268 475.432 915.068 470.216 921.948 470.216C926.172 470.216 928.7 471.624 930.78 473.672L927.644 477.288C925.916 475.72 924.156 474.76 921.916 474.76C918.14 474.76 915.42 477.896 915.42 481.736V481.8C915.42 485.64 918.076 488.84 921.916 488.84C924.476 488.84 926.044 487.816 927.804 486.216L930.94 489.384C928.636 491.848 926.076 493.384 921.756 493.384ZM934.566 493V470.6H939.494V479.464H948.582V470.6H953.51V493H948.582V484.008H939.494V493H934.566ZM958.782 493V470.6H963.71V493H958.782ZM968.988 493V470.6H973.532L984.028 484.392V470.6H988.892V493H984.7L973.852 478.76V493H968.988ZM993.949 493V470.6H1010.85V474.984H998.845V479.528H1009.41V483.912H998.845V488.616H1011.01V493H993.949ZM1015.07 493V470.6H1019.61L1030.11 484.392V470.6H1034.97V493H1030.78L1019.93 478.76V493H1015.07ZM1040.03 493V470.6H1045.34L1051.23 480.072L1057.12 470.6H1062.43V493H1057.53V478.376L1051.23 487.944H1051.1L1044.86 478.472V493H1040.03ZM1065.57 493L1075.17 470.44H1079.71L1089.31 493H1084.16L1082.11 487.976H1072.64L1070.59 493H1065.57ZM1074.4 483.624H1080.35L1077.38 476.36L1074.4 483.624ZM1092.45 493V470.6H1102.69C1105.54 470.6 1107.75 471.4 1109.22 472.872C1110.47 474.12 1111.14 475.88 1111.14 477.992V478.056C1111.14 481.672 1109.19 483.944 1106.34 485L1111.81 493H1106.05L1101.25 485.832H1097.38V493H1092.45ZM1097.38 481.48H1102.37C1104.77 481.48 1106.15 480.2 1106.15 478.312V478.248C1106.15 476.136 1104.67 475.048 1102.27 475.048H1097.38V481.48ZM1115.26 493V470.6H1120.18V480.392L1129.27 470.6H1135.22L1126.1 480.104L1135.64 493H1129.72L1122.78 483.464L1120.18 486.152V493H1115.26ZM1138.31 493V470.6H1155.21V474.984H1143.21V479.528H1153.77V483.912H1143.21V488.616H1155.37V493H1138.31ZM1164.64 493V475.144H1157.83V470.6H1176.39V475.144H1169.57V493H1164.64ZM1180.08 493V470.6H1185.01V493H1180.08ZM1190.29 493V470.6H1194.83L1205.33 484.392V470.6H1210.19V493H1206L1195.15 478.76V493H1190.29ZM1226.03 493.384C1219.06 493.384 1214.26 488.488 1214.26 481.864V481.8C1214.26 475.432 1219.22 470.216 1226 470.216C1230.03 470.216 1232.47 471.304 1234.8 473.288L1231.7 477.032C1229.97 475.592 1228.43 474.76 1225.84 474.76C1222.26 474.76 1219.41 477.928 1219.41 481.736V481.8C1219.41 485.896 1222.23 488.904 1226.19 488.904C1227.99 488.904 1229.59 488.456 1230.83 487.56V484.36H1225.87V480.104H1235.6V489.832C1233.3 491.784 1230.13 493.384 1226.03 493.384Z" fill="#272727"/>
<path d="M747.688 575V552.6H752.616V562.392L761.704 552.6H767.656L758.536 562.104L768.072 575H762.152L755.208 565.464L752.616 568.152V575H747.688ZM779.873 575.384C772.961 575.384 768.001 570.232 768.001 563.864V563.8C768.001 557.432 773.025 552.216 779.937 552.216C786.849 552.216 791.809 557.368 791.809 563.736V563.8C791.809 570.168 786.785 575.384 779.873 575.384ZM779.937 570.84C783.905 570.84 786.657 567.704 786.657 563.864V563.8C786.657 559.96 783.841 556.76 779.873 556.76C775.905 556.76 773.153 559.896 773.153 563.736V563.8C773.153 567.64 775.969 570.84 779.937 570.84ZM795.861 575V552.6H800.405L810.901 566.392V552.6H815.765V575H811.573L800.725 560.76V575H795.861ZM826.038 575V557.144H819.222V552.6H837.782V557.144H830.966V575H826.038ZM836.457 575L846.057 552.44H850.601L860.201 575H855.049L853.001 569.976H843.529L841.481 575H836.457ZM845.289 565.624H851.241L848.265 558.36L845.289 565.624ZM863.338 575V552.6H868.266V562.392L877.354 552.6H883.306L874.186 562.104L883.722 575H877.802L870.858 565.464L868.266 568.152V575H863.338ZM891.297 575V557.144H884.481V552.6H903.041V557.144H896.225V575H891.297Z" fill="#272727"/>
<rect x="724.5" y="206.5" width="261" height="57" rx="28.5" stroke="#272727" stroke-width="3"/>
<circle cx="953" cy="235" r="18.5" transform="rotate(90 953 235)" stroke="#272727" stroke-width="3"/>
<path d="M964.061 236.061C964.646 235.475 964.646 234.525 964.061 233.939L954.515 224.393C953.929 223.808 952.979 223.808 952.393 224.393C951.808 224.979 951.808 225.929 952.393 226.515L960.879 235L952.393 243.485C951.808 244.071 951.808 245.021 952.393 245.607C952.979 246.192 953.929 246.192 954.515 245.607L964.061 236.061ZM943 236.5H963V233.5H943V236.5Z" fill="#272727"/>
</svg>
