<svg width="157" height="24" viewBox="0 0 157 24" fill="none" xmlns="http://www.w3.org/2000/svg">
<path d="M0.688 23V0.599998H5.616V10.392L14.704 0.599998H20.656L11.536 10.104L21.072 23H15.152L8.208 13.464L5.616 16.152V23H0.688ZM32.873 23.384C25.961 23.384 21.001 18.232 21.001 11.864V11.8C21.001 5.432 26.025 0.216 32.937 0.216C39.849 0.216 44.809 5.368 44.809 11.736V11.8C44.809 18.168 39.785 23.384 32.873 23.384ZM32.937 18.84C36.905 18.84 39.657 15.704 39.657 11.864V11.8C39.657 7.96 36.841 4.76 32.873 4.76C28.905 4.76 26.153 7.896 26.153 11.736V11.8C26.153 15.64 28.969 18.84 32.937 18.84ZM48.8605 23V0.599998H53.4045L63.9005 14.392V0.599998H68.7645V23H64.5725L53.7245 8.76V23H48.8605ZM79.0378 23V5.144H72.2218V0.599998H90.7818V5.144H83.9658V23H79.0378ZM89.4568 23L99.0568 0.439999H103.601L113.201 23H108.049L106.001 17.976H96.5288L94.4808 23H89.4568ZM98.2888 13.624H104.241L101.265 6.36L98.2888 13.624ZM116.338 23V0.599998H121.266V10.392L130.354 0.599998H136.306L127.186 10.104L136.722 23H130.802L123.858 13.464L121.266 16.152V23H116.338ZM144.297 23V5.144H137.481V0.599998H156.041V5.144H149.225V23H144.297Z" fill="#272727"/>
</svg>
