<svg width="170" height="24" viewBox="0 0 170 24" fill="none" xmlns="http://www.w3.org/2000/svg">
<path d="M0.688 23V0.599998H9.84C15.184 0.599998 18.416 3.768 18.416 8.344V8.408C18.416 13.592 14.384 16.28 9.36 16.28H5.616V23H0.688ZM5.616 11.896H9.52C11.984 11.896 13.424 10.424 13.424 8.504V8.44C13.424 6.232 11.888 5.048 9.424 5.048H5.616V11.896ZM21.743 23V0.599998H31.983C34.831 0.599998 37.039 1.4 38.511 2.872C39.759 4.12 40.431 5.88 40.431 7.992V8.056C40.431 11.672 38.479 13.944 35.631 15L41.103 23H35.343L30.543 15.832H26.671V23H21.743ZM26.671 11.48H31.663C34.063 11.48 35.439 10.2 35.439 8.312V8.248C35.439 6.136 33.967 5.048 31.567 5.048H26.671V11.48ZM55.428 23.384C48.516 23.384 43.556 18.232 43.556 11.864V11.8C43.556 5.432 48.58 0.216 55.492 0.216C62.404 0.216 67.364 5.368 67.364 11.736V11.8C67.364 18.168 62.34 23.384 55.428 23.384ZM55.492 18.84C59.46 18.84 62.212 15.704 62.212 11.864V11.8C62.212 7.96 59.396 4.76 55.428 4.76C51.46 4.76 48.708 7.896 48.708 11.736V11.8C48.708 15.64 51.524 18.84 55.492 18.84ZM75.5348 23.32C72.0468 23.32 69.7428 21.784 68.2068 19.96L71.3108 16.504C72.5908 17.912 73.8388 18.744 75.4068 18.744C77.2628 18.744 78.4148 17.624 78.4148 15.032V0.599998H83.4708V15.256C83.4708 17.912 82.7028 19.896 81.3588 21.24C79.9828 22.616 77.9668 23.32 75.5348 23.32ZM88.1893 23V0.599998H105.085V4.984H93.0853V9.528H103.645V13.912H93.0853V18.616H105.245V23H88.1893ZM109.307 23V0.599998H114.235V10.392L123.323 0.599998H129.275L120.155 10.104L129.691 23H123.771L116.827 13.464L114.235 16.152V23H109.307ZM137.265 23V5.144H130.449V0.599998H149.009V5.144H142.193V23H137.265ZM152.479 23V0.599998H169.375V4.984H157.375V9.528H167.935V13.912H157.375V18.616H169.535V23H152.479Z" fill="#272727"/>
</svg>
