<svg width="263" height="70" viewBox="0 0 263 70" fill="none" xmlns="http://www.w3.org/2000/svg">
<rect y="9" width="263" height="50" fill="#FFE800"/>
<path d="M17.1 43V25.5H24.25C28.425 25.5 30.95 27.975 30.95 31.55V31.6C30.95 35.65 27.8 37.75 23.875 37.75H20.95V43H17.1ZM20.95 34.325H24C25.925 34.325 27.05 33.175 27.05 31.675V31.625C27.05 29.9 25.85 28.975 23.925 28.975H20.95V34.325ZM33.3992 43V29.6H37.1992V32.3C37.9742 30.45 39.2242 29.25 41.4742 29.35V33.325H41.2742C38.7492 33.325 37.1992 34.85 37.1992 38.05V43H33.3992ZM50.0572 43.3C45.9072 43.3 42.8322 40.225 42.8322 36.375V36.325C42.8322 32.475 45.9322 29.35 50.1072 29.35C54.2572 29.35 57.3322 32.425 57.3322 36.275V36.325C57.3322 40.175 54.2322 43.3 50.0572 43.3ZM50.1072 40.025C52.2822 40.025 53.5822 38.35 53.5822 36.375V36.325C53.5822 34.35 52.1572 32.625 50.0572 32.625C47.8822 32.625 46.5822 34.3 46.5822 36.275V36.325C46.5822 38.3 48.0072 40.025 50.1072 40.025ZM60.1588 28.125V24.75H64.1588V28.125H60.1588ZM59.7588 47.075C59.0588 47.075 58.6338 47.025 58.1088 46.925V43.95C58.4088 44 58.6338 44.025 58.9088 44.025C59.7088 44.025 60.2588 43.6 60.2588 42.475V29.6H64.0588V42.775C64.0588 45.725 62.5588 47.075 59.7588 47.075ZM73.9777 43.3C69.9527 43.3 66.9777 40.475 66.9777 36.375V36.325C66.9777 32.5 69.7027 29.35 73.6027 29.35C78.0777 29.35 80.1277 32.825 80.1277 36.625C80.1277 36.925 80.1027 37.275 80.0777 37.625H70.7527C71.1277 39.35 72.3277 40.25 74.0277 40.25C75.3027 40.25 76.2277 39.85 77.2777 38.875L79.4527 40.8C78.2027 42.35 76.4027 43.3 73.9777 43.3ZM70.7027 35.25H76.4277C76.2027 33.55 75.2027 32.4 73.6027 32.4C72.0277 32.4 71.0027 33.525 70.7027 35.25ZM82.9598 43V24.75H86.7598V34.475L91.2098 29.6H95.7598L90.6598 34.875L95.9348 43H91.5848L88.0848 37.525L86.7598 38.925V43H82.9598ZM102.036 43.225C99.7105 43.225 98.1355 42.3 98.1355 39.2V32.85H96.5355V29.6H98.1355V26.175H101.936V29.6H105.086V32.85H101.936V38.575C101.936 39.45 102.311 39.875 103.161 39.875C103.861 39.875 104.486 39.7 105.036 39.4V42.45C104.236 42.925 103.311 43.225 102.036 43.225ZM105.487 46.2L116.562 23.05H119.787L108.712 46.2H105.487ZM121.543 43V25.5H125.393V33.15L132.493 25.5H137.143L130.018 32.925L137.468 43H132.843L127.418 35.55L125.393 37.65V43H121.543ZM139.805 43V25.5H143.655V39.5H152.38V43H139.805ZM153.784 43L161.284 25.375H164.834L172.334 43H168.309L166.709 39.075H159.309L157.709 43H153.784ZM160.684 35.675H165.334L163.009 30L160.684 35.675ZM175.035 43V25.5H188.235V28.925H178.86V32.475H187.11V35.9H178.86V39.575H188.36V43H175.035ZM198.008 43.25C195.358 43.25 192.683 42.325 190.583 40.45L192.858 37.725C194.433 39.025 196.083 39.85 198.083 39.85C199.658 39.85 200.608 39.225 200.608 38.2V38.15C200.608 37.175 200.008 36.675 197.083 35.925C193.558 35.025 191.283 34.05 191.283 30.575V30.525C191.283 27.35 193.833 25.25 197.408 25.25C199.958 25.25 202.133 26.05 203.908 27.475L201.908 30.375C200.358 29.3 198.833 28.65 197.358 28.65C195.883 28.65 195.108 29.325 195.108 30.175V30.225C195.108 31.375 195.858 31.75 198.883 32.525C202.433 33.45 204.433 34.725 204.433 37.775V37.825C204.433 41.3 201.783 43.25 198.008 43.25ZM207.774 43V25.5H220.974V28.925H211.599V32.475H219.849V35.9H211.599V39.575H221.099V43H207.774ZM224.522 43V25.5H232.522C234.747 25.5 236.472 26.125 237.622 27.275C238.597 28.25 239.122 29.625 239.122 31.275V31.325C239.122 34.15 237.597 35.925 235.372 36.75L239.647 43H235.147L231.397 37.4H228.372V43H224.522ZM228.372 34H232.272C234.147 34 235.222 33 235.222 31.525V31.475C235.222 29.825 234.072 28.975 232.197 28.975H228.372V34Z" fill="#272727"/>
</svg>
