<svg width="492" height="24" viewBox="0 0 492 24" fill="none" xmlns="http://www.w3.org/2000/svg">
<path d="M0.688 23V0.599998H9.84C15.184 0.599998 18.416 3.768 18.416 8.344V8.408C18.416 13.592 14.384 16.28 9.36 16.28H5.616V23H0.688ZM5.616 11.896H9.52C11.984 11.896 13.424 10.424 13.424 8.504V8.44C13.424 6.232 11.888 5.048 9.424 5.048H5.616V11.896ZM21.743 23V0.599998H31.983C34.831 0.599998 37.039 1.4 38.511 2.872C39.759 4.12 40.431 5.88 40.431 7.992V8.056C40.431 11.672 38.479 13.944 35.631 15L41.103 23H35.343L30.543 15.832H26.671V23H21.743ZM26.671 11.48H31.663C34.063 11.48 35.439 10.2 35.439 8.312V8.248C35.439 6.136 33.967 5.048 31.567 5.048H26.671V11.48ZM55.428 23.384C48.516 23.384 43.556 18.232 43.556 11.864V11.8C43.556 5.432 48.58 0.216 55.492 0.216C62.404 0.216 67.364 5.368 67.364 11.736V11.8C67.364 18.168 62.34 23.384 55.428 23.384ZM55.492 18.84C59.46 18.84 62.212 15.704 62.212 11.864V11.8C62.212 7.96 59.396 4.76 55.428 4.76C51.46 4.76 48.708 7.896 48.708 11.736V11.8C48.708 15.64 51.524 18.84 55.492 18.84ZM69.6185 23V19.256L81.9385 4.92H70.0025V0.599998H88.2745V4.344L75.9545 18.68H88.2745V23H69.6185ZM92.6268 23V0.599998H109.523V4.984H97.5228V9.528H108.083V13.912H97.5228V18.616H109.683V23H92.6268ZM121.712 23.32C118.32 23.32 114.896 22.136 112.208 19.736L115.12 16.248C117.136 17.912 119.248 18.968 121.808 18.968C123.824 18.968 125.04 18.168 125.04 16.856V16.792C125.04 15.544 124.272 14.904 120.528 13.944C116.016 12.792 113.104 11.544 113.104 7.096V7.032C113.104 2.968 116.368 0.279999 120.944 0.279999C124.208 0.279999 126.992 1.304 129.264 3.128L126.704 6.84C124.72 5.464 122.768 4.632 120.88 4.632C118.992 4.632 118 5.496 118 6.584V6.648C118 8.12 118.96 8.6 122.832 9.592C127.376 10.776 129.936 12.408 129.936 16.312V16.376C129.936 20.824 126.544 23.32 121.712 23.32ZM141.549 23.32C138.157 23.32 134.733 22.136 132.045 19.736L134.957 16.248C136.973 17.912 139.085 18.968 141.645 18.968C143.661 18.968 144.877 18.168 144.877 16.856V16.792C144.877 15.544 144.109 14.904 140.365 13.944C135.853 12.792 132.941 11.544 132.941 7.096V7.032C132.941 2.968 136.205 0.279999 140.781 0.279999C144.045 0.279999 146.829 1.304 149.101 3.128L146.541 6.84C144.557 5.464 142.605 4.632 140.717 4.632C138.829 4.632 137.837 5.496 137.837 6.584V6.648C137.837 8.12 138.797 8.6 142.669 9.592C147.213 10.776 149.773 12.408 149.773 16.312V16.376C149.773 20.824 146.381 23.32 141.549 23.32ZM151.34 23L160.94 0.439999H165.484L175.084 23H169.932L167.884 17.976H158.412L156.364 23H151.34ZM160.172 13.624H166.124L163.148 6.36L160.172 13.624ZM186.753 23.352C180.737 23.352 177.057 19.992 177.057 13.4V0.599998H181.985V13.272C181.985 16.92 183.809 18.808 186.817 18.808C189.825 18.808 191.649 16.984 191.649 13.432V0.599998H196.577V13.24C196.577 20.024 192.769 23.352 186.753 23.352ZM206.493 23V5.144H199.677V0.599998H218.237V5.144H211.421V23H206.493ZM231.618 23.384C224.706 23.384 219.746 18.232 219.746 11.864V11.8C219.746 5.432 224.77 0.216 231.682 0.216C238.594 0.216 243.554 5.368 243.554 11.736V11.8C243.554 18.168 238.53 23.384 231.618 23.384ZM231.682 18.84C235.65 18.84 238.402 15.704 238.402 11.864V11.8C238.402 7.96 235.586 4.76 231.618 4.76C227.65 4.76 224.898 7.896 224.898 11.736V11.8C224.898 15.64 227.714 18.84 231.682 18.84ZM247.605 23V0.599998H252.917L258.805 10.072L264.693 0.599998H270.005V23H265.109V8.376L258.805 17.944H258.677L252.437 8.472V23H247.605ZM273.147 23L282.747 0.439999H287.291L296.891 23H291.739L289.691 17.976H280.219L278.171 23H273.147ZM281.979 13.624H287.931L284.955 6.36L281.979 13.624ZM302.369 23V5.144H295.553V0.599998H314.113V5.144H307.297V23H302.369ZM317.807 23V0.599998H322.735V23H317.807ZM335.981 23.32C332.589 23.32 329.165 22.136 326.477 19.736L329.389 16.248C331.405 17.912 333.517 18.968 336.077 18.968C338.093 18.968 339.309 18.168 339.309 16.856V16.792C339.309 15.544 338.541 14.904 334.797 13.944C330.285 12.792 327.373 11.544 327.373 7.096V7.032C327.373 2.968 330.637 0.279999 335.213 0.279999C338.477 0.279999 341.261 1.304 343.533 3.128L340.973 6.84C338.989 5.464 337.037 4.632 335.149 4.632C333.261 4.632 332.269 5.496 332.269 6.584V6.648C332.269 8.12 333.229 8.6 337.101 9.592C341.645 10.776 344.205 12.408 344.205 16.312V16.376C344.205 20.824 340.813 23.32 335.981 23.32ZM348.386 23V0.599998H353.314V23H348.386ZM366.56 23.32C363.168 23.32 359.744 22.136 357.056 19.736L359.968 16.248C361.984 17.912 364.096 18.968 366.656 18.968C368.672 18.968 369.888 18.168 369.888 16.856V16.792C369.888 15.544 369.12 14.904 365.376 13.944C360.864 12.792 357.952 11.544 357.952 7.096V7.032C357.952 2.968 361.216 0.279999 365.792 0.279999C369.056 0.279999 371.84 1.304 374.112 3.128L371.552 6.84C369.568 5.464 367.616 4.632 365.728 4.632C363.84 4.632 362.848 5.496 362.848 6.584V6.648C362.848 8.12 363.808 8.6 367.68 9.592C372.224 10.776 374.784 12.408 374.784 16.312V16.376C374.784 20.824 371.392 23.32 366.56 23.32ZM378.74 23V0.599998H395.636V4.984H383.636V9.528H394.196V13.912H383.636V18.616H395.796V23H378.74ZM399.858 23V0.599998H410.098C412.946 0.599998 415.154 1.4 416.626 2.872C417.874 4.12 418.546 5.88 418.546 7.992V8.056C418.546 11.672 416.594 13.944 413.746 15L419.218 23H413.458L408.658 15.832H404.786V23H399.858ZM404.786 11.48H409.778C412.178 11.48 413.554 10.2 413.554 8.312V8.248C413.554 6.136 412.082 5.048 409.682 5.048H404.786V11.48ZM432.007 23.352C425.991 23.352 422.311 19.992 422.311 13.4V0.599998H427.239V13.272C427.239 16.92 429.063 18.808 432.071 18.808C435.079 18.808 436.903 16.984 436.903 13.432V0.599998H441.831V13.24C441.831 20.024 438.023 23.352 432.007 23.352ZM446.53 23V0.599998H451.074L461.57 14.392V0.599998H466.434V23H462.243L451.394 8.76V23H446.53ZM482.276 23.384C475.3 23.384 470.5 18.488 470.5 11.864V11.8C470.5 5.432 475.46 0.216 482.244 0.216C486.276 0.216 488.708 1.304 491.044 3.288L487.94 7.032C486.212 5.592 484.676 4.76 482.084 4.76C478.5 4.76 475.652 7.928 475.652 11.736V11.8C475.652 15.896 478.468 18.904 482.436 18.904C484.228 18.904 485.828 18.456 487.076 17.56V14.36H482.116V10.104H491.844V19.832C489.54 21.784 486.372 23.384 482.276 23.384Z" fill="#272727"/>
</svg>
