<svg width="50" height="70" viewBox="0 0 50 70" fill="none" xmlns="http://www.w3.org/2000/svg">
<rect y="9" width="50" height="50" fill="#FFE800"/>
<path d="M14.99 44.3C11.81 44.3 8.6 43.19 6.08 40.94L8.81 37.67C10.7 39.23 12.68 40.22 15.08 40.22C16.97 40.22 18.11 39.47 18.11 38.24V38.18C18.11 37.01 17.39 36.41 13.88 35.51C9.65 34.43 6.92 33.26 6.92 29.09V29.03C6.92 25.22 9.98 22.7 14.27 22.7C17.33 22.7 19.94 23.66 22.07 25.37L19.67 28.85C17.81 27.56 15.98 26.78 14.21 26.78C12.44 26.78 11.51 27.59 11.51 28.61V28.67C11.51 30.05 12.41 30.5 16.04 31.43C20.3 32.54 22.7 34.07 22.7 37.73V37.79C22.7 41.96 19.52 44.3 14.99 44.3ZM25.5095 44V23H33.6995C40.2995 23 44.8595 27.53 44.8595 33.44V33.5C44.8595 39.41 40.2995 44 33.6995 44H25.5095ZM30.1295 39.83H33.6995C37.4795 39.83 40.0295 37.28 40.0295 33.56V33.5C40.0295 29.78 37.4795 27.17 33.6995 27.17H30.1295V39.83Z" fill="#394854"/>
</svg>
