<svg width="490" height="24" viewBox="0 0 490 24" fill="none" xmlns="http://www.w3.org/2000/svg">
<path d="M9.656 23.32C6.264 23.32 2.84 22.136 0.152 19.736L3.064 16.248C5.08 17.912 7.192 18.968 9.752 18.968C11.768 18.968 12.984 18.168 12.984 16.856V16.792C12.984 15.544 12.216 14.904 8.472 13.944C3.96 12.792 1.048 11.544 1.048 7.096V7.032C1.048 2.968 4.312 0.279999 8.888 0.279999C12.152 0.279999 14.936 1.304 17.208 3.128L14.648 6.84C12.664 5.464 10.712 4.632 8.824 4.632C6.936 4.632 5.944 5.496 5.944 6.584V6.648C5.944 8.12 6.904 8.6 10.776 9.592C15.32 10.776 17.88 12.408 17.88 16.312V16.376C17.88 20.824 14.488 23.32 9.656 23.32ZM31.1808 23.352C25.1648 23.352 21.4848 19.992 21.4848 13.4V0.599998H26.4128V13.272C26.4128 16.92 28.2368 18.808 31.2448 18.808C34.2528 18.808 36.0768 16.984 36.0768 13.432V0.599998H41.0048V13.24C41.0048 20.024 37.1968 23.352 31.1808 23.352ZM56.2003 23.384C49.6083 23.384 44.7123 18.296 44.7123 11.864V11.8C44.7123 5.432 49.5123 0.216 56.3923 0.216C60.6163 0.216 63.1443 1.624 65.2243 3.672L62.0883 7.288C60.3603 5.72 58.6003 4.76 56.3603 4.76C52.5843 4.76 49.8643 7.896 49.8643 11.736V11.8C49.8643 15.64 52.5203 18.84 56.3603 18.84C58.9203 18.84 60.4883 17.816 62.2483 16.216L65.3843 19.384C63.0803 21.848 60.5203 23.384 56.2003 23.384ZM69.0093 23V0.599998H73.9373V9.464H83.0253V0.599998H87.9533V23H83.0253V14.008H73.9373V23H69.0093ZM93.0018 23V0.599998H98.3138L104.202 10.072L110.09 0.599998H115.402V23H110.506V8.376L104.202 17.944H104.074L97.8338 8.472V23H93.0018ZM118.543 23L128.143 0.439999H132.687L142.287 23H137.135L135.087 17.976H125.615L123.567 23H118.543ZM127.375 13.624H133.327L130.351 6.36L127.375 13.624ZM153.08 23.32C149.688 23.32 146.264 22.136 143.576 19.736L146.488 16.248C148.504 17.912 150.616 18.968 153.176 18.968C155.192 18.968 156.408 18.168 156.408 16.856V16.792C156.408 15.544 155.64 14.904 151.896 13.944C147.384 12.792 144.472 11.544 144.472 7.096V7.032C144.472 2.968 147.736 0.279999 152.312 0.279999C155.576 0.279999 158.36 1.304 160.632 3.128L158.072 6.84C156.088 5.464 154.136 4.632 152.248 4.632C150.36 4.632 149.368 5.496 149.368 6.584V6.648C149.368 8.12 150.328 8.6 154.2 9.592C158.744 10.776 161.304 12.408 161.304 16.312V16.376C161.304 20.824 157.912 23.32 153.08 23.32ZM175.756 23.384C169.164 23.384 164.268 18.296 164.268 11.864V11.8C164.268 5.432 169.068 0.216 175.948 0.216C180.172 0.216 182.7 1.624 184.78 3.672L181.644 7.288C179.916 5.72 178.156 4.76 175.916 4.76C172.14 4.76 169.42 7.896 169.42 11.736V11.8C169.42 15.64 172.076 18.84 175.916 18.84C178.476 18.84 180.044 17.816 181.804 16.216L184.94 19.384C182.636 21.848 180.076 23.384 175.756 23.384ZM188.566 23V0.599998H193.494V9.464H202.582V0.599998H207.51V23H202.582V14.008H193.494V23H188.566ZM212.782 23V0.599998H217.71V23H212.782ZM222.988 23V0.599998H227.532L238.028 14.392V0.599998H242.892V23H238.7L227.852 8.76V23H222.988ZM247.949 23V0.599998H264.845V4.984H252.845V9.528H263.405V13.912H252.845V18.616H265.005V23H247.949ZM269.067 23V0.599998H273.611L284.107 14.392V0.599998H288.971V23H284.779L273.931 8.76V23H269.067ZM294.028 23V0.599998H299.34L305.228 10.072L311.116 0.599998H316.428V23H311.532V8.376L305.228 17.944H305.1L298.86 8.472V23H294.028ZM319.569 23L329.169 0.439999H333.713L343.313 23H338.161L336.113 17.976H326.641L324.593 23H319.569ZM328.401 13.624H334.353L331.377 6.36L328.401 13.624ZM346.451 23V0.599998H356.691C359.539 0.599998 361.747 1.4 363.219 2.872C364.467 4.12 365.139 5.88 365.139 7.992V8.056C365.139 11.672 363.187 13.944 360.339 15L365.811 23H360.051L355.251 15.832H351.379V23H346.451ZM351.379 11.48H356.371C358.771 11.48 360.147 10.2 360.147 8.312V8.248C360.147 6.136 358.675 5.048 356.275 5.048H351.379V11.48ZM369.256 23V0.599998H374.184V10.392L383.272 0.599998H389.224L380.104 10.104L389.64 23H383.72L376.776 13.464L374.184 16.152V23H369.256ZM392.31 23V0.599998H409.206V4.984H397.206V9.528H407.766V13.912H397.206V18.616H409.366V23H392.31ZM418.644 23V5.144H411.828V0.599998H430.388V5.144H423.572V23H418.644ZM434.082 23V0.599998H439.01V23H434.082ZM444.288 23V0.599998H448.832L459.328 14.392V0.599998H464.192V23H460L449.152 8.76V23H444.288ZM480.033 23.384C473.057 23.384 468.257 18.488 468.257 11.864V11.8C468.257 5.432 473.217 0.216 480.001 0.216C484.033 0.216 486.465 1.304 488.801 3.288L485.697 7.032C483.969 5.592 482.433 4.76 479.841 4.76C476.257 4.76 473.409 7.928 473.409 11.736V11.8C473.409 15.896 476.225 18.904 480.193 18.904C481.985 18.904 483.585 18.456 484.833 17.56V14.36H479.873V10.104H489.601V19.832C487.297 21.784 484.129 23.384 480.033 23.384Z" fill="#272727"/>
</svg>
